<svg width="512" height="512" viewBox="0 0 512 512" fill="none" xmlns="http://www.w3.org/2000/svg">
<path d="M477.752 384C499.534 346.346 512 302.629 512 256C512 209.371 499.534 165.654 477.752 128L34.2483 128C12.4665 165.654 0 209.371 0 256C0 302.629 12.4665 346.346 34.2482 384L477.752 384Z" fill="#EEEEEE"/>
<path d="M255.91 512C154.728 511.965 67.2675 453.23 25.7344 368L486.263 368C444.73 453.23 357.27 511.965 256.088 512C256.058 512 256.029 512 255.999 512C255.969 512 255.939 512 255.91 512Z" fill="#338AF3"/>
<path d="M255.999 0C154.779 0 67.2798 58.7445 25.7344 144L486.263 144C444.718 58.7445 357.219 0 255.999 0Z" fill="#338AF3"/>
<path d="M332.514 256L301.249 270.707L317.898 300.986L283.948 294.491L279.646 328.787L255.999 303.563L232.351 328.787L228.05 294.491L194.1 300.985L210.748 270.706L179.484 256L210.749 241.293L194.1 211.015L228.049 217.509L232.352 183.213L255.999 208.437L279.647 183.213L283.948 217.509L317.899 211.015L301.25 241.294L332.514 256Z" fill="#FFC635"/>
</svg>
