<svg width="512" height="512" viewBox="0 0 512 512" fill="none" xmlns="http://www.w3.org/2000/svg">
<path d="M482.19 376C501.219 340.208 512 299.363 512 256C512 212.637 501.219 171.792 482.19 136H29.8097C10.7813 171.792 0 212.637 0 256C0 299.363 10.7813 340.208 29.8097 376H482.19Z" fill="#D80027"/>
<path d="M496.473 344C460.588 442.034 366.464 512 255.999 512C145.534 512 51.4106 442.034 15.5254 344H496.473Z" fill="#6DA544"/>
<path d="M496.475 168H15.5273C51.4126 69.9657 145.536 0 256.001 0C366.466 0 460.59 69.9657 496.475 168Z" fill="#338AF3"/>
<path d="M261 321.001C225.102 321.001 196 291.899 196 256.001C196 220.103 225.102 191 261 191C272.193 191 282.725 193.83 291.92 198.813C277.495 184.707 257.768 176 236 176C191.816 176 156 211.817 156 256C156 300.183 191.817 336 236 336C257.769 336 277.495 327.293 291.92 313.187C282.725 318.171 272.193 321.001 261 321.001Z" fill="#EEEEEE"/>
<path d="M311 211.001L319.61 235.215L342.82 224.18L331.787 247.39L356.001 256.001L331.787 264.612L342.82 287.822L319.61 276.787L311 301.001L302.391 276.787L279.18 287.822L290.215 264.612L266 256.001L290.215 247.39L279.18 224.18L302.391 235.215L311 211.001Z" fill="#EEEEEE"/>
</svg>
