<svg width="512" height="512" viewBox="0 0 512 512" fill="none" xmlns="http://www.w3.org/2000/svg">
<g clip-path="url(#clip0_1191_2657)">
<path fill-rule="evenodd" clip-rule="evenodd" d="M284.939 1.61755V510.382C275.44 511.451 265.784 512 256 512C114.615 512 0 397.385 0 256C0 114.615 114.615 0 256 0C265.784 0 275.44 0.548887 284.939 1.61755Z" fill="#EEEEEE"/>
<path fill-rule="evenodd" clip-rule="evenodd" d="M255.999 512C397.281 512 511.832 397.552 511.999 256.31V255.69C511.832 114.448 397.281 0 255.999 0C219.576 0 184.929 7.60668 153.561 21.3181L228.266 51.2L100.266 102.4L228.266 153.6L100.266 204.8L228.266 256L100.266 307.2L228.266 358.4L100.266 409.6L228.266 460.8L153.561 490.682C184.929 504.393 219.576 512 255.999 512Z" fill="#D80027"/>
</g>
<defs>
<clipPath id="clip0_1191_2657">
<rect width="512" height="512" fill="white"/>
</clipPath>
</defs>
</svg>
