<svg width="512" height="512" viewBox="0 0 512 512" fill="none" xmlns="http://www.w3.org/2000/svg">
<circle cx="256" cy="256" r="256" fill="#0052B4"/>
<path d="M376.677 78.4331L389.449 117.742H430.781L397.343 142.036L410.115 181.344L376.677 157.05L343.239 181.344L356.011 142.036L322.573 117.742H363.905L376.677 78.4331Z" fill="#FFC635"/>
<path d="M426.663 199.109L439.436 238.418H480.767L447.329 262.712L460.101 302.021L426.663 277.727L393.225 302.021L405.998 262.712L372.56 238.418H413.891L426.663 199.109Z" fill="#FFC635"/>
<path d="M376.677 319.789L389.449 359.098H430.781L397.343 383.392L410.115 422.7L376.677 398.406L343.239 422.7L356.011 383.392L322.573 359.098H363.905L376.677 319.789Z" fill="#FFC635"/>
<path d="M255.999 369.776L268.771 409.085H310.103L276.665 433.379L289.437 472.687L255.999 448.393L222.561 472.687L235.334 433.379L201.896 409.085H243.227L255.999 369.776Z" fill="#FFC635"/>
<path d="M135.322 319.789L148.094 359.098H189.425L155.987 383.392L168.76 422.7L135.322 398.406L101.884 422.7L114.656 383.392L81.2179 359.098H122.549L135.322 319.789Z" fill="#FFC635"/>
<path d="M85.3353 199.109L98.1074 238.418H139.439L106.001 262.712L118.773 302.021L85.3353 277.727L51.8973 302.021L64.6695 262.712L31.2316 238.418H72.5631L85.3353 199.109Z" fill="#FFC635"/>
<path d="M135.322 78.4331L148.094 117.742H189.425L155.987 142.036L168.76 181.344L135.322 157.05L101.884 181.344L114.656 142.036L81.2179 117.742H122.549L135.322 78.4331Z" fill="#FFC635"/>
<path d="M255.999 28.4463L268.771 67.7549H310.103L276.665 92.049L289.437 131.358L255.999 107.064L222.561 131.358L235.334 92.049L201.896 67.7549H243.227L255.999 28.4463Z" fill="#FFC635"/>
</svg>
