<svg width="512" height="512" viewBox="0 0 512 512" fill="none" xmlns="http://www.w3.org/2000/svg">
<circle cx="256" cy="256" r="256" fill="#D80027"/>
<path d="M282.431 193.668C276.613 217.867 266.276 213.252 261.203 234.356C231.32 227.171 212.916 197.121 220.101 167.236C227.283 137.353 257.336 118.949 287.22 126.134C277.073 168.341 287.636 172.025 282.431 193.668Z" fill="#EEEEEE"/>
<path d="M204.888 211.6C226.105 224.61 218.521 233.017 237.023 244.364C220.955 270.565 186.69 278.78 160.488 262.713C134.287 246.646 126.07 212.379 142.138 186.178C179.144 208.87 185.909 199.963 204.888 211.6Z" fill="#EEEEEE"/>
<path d="M197.978 290.892C216.909 274.734 222.558 284.544 239.067 270.454C259.022 293.831 256.246 328.959 232.87 348.914C209.492 368.869 174.364 366.09 154.412 342.715C187.426 314.532 181.045 305.343 197.978 290.892Z" fill="#EEEEEE"/>
<path d="M271.255 321.965C261.735 298.968 272.811 296.624 264.512 276.571C292.911 264.818 325.463 278.312 337.217 306.711C348.97 335.11 335.474 367.661 307.075 379.415C290.478 339.306 279.769 342.535 271.255 321.965Z" fill="#EEEEEE"/>
<path d="M323.45 261.876C298.637 263.823 299.828 252.563 278.193 254.261C275.79 223.622 298.684 196.831 329.325 194.426C359.965 192.027 386.755 214.919 389.157 245.561C345.88 248.954 345.641 260.137 323.45 261.876Z" fill="#EEEEEE"/>
</svg>
