<svg width="512" height="512" viewBox="0 0 512 512" fill="none" xmlns="http://www.w3.org/2000/svg">
<path d="M29.8097 136C10.7814 171.792 1.42816e-05 212.637 1.04907e-05 256C6.69983e-06 299.363 10.7813 340.208 29.8097 376L482.19 376C501.219 340.208 512 299.363 512 256C512 212.637 501.219 171.792 482.19 136L29.8097 136Z" fill="#EEEEEE"/>
<path d="M15.527 168C51.4122 69.9657 145.536 -3.068e-05 256.001 -2.10229e-05C366.466 -1.13657e-05 460.589 69.9657 496.475 168L15.527 168Z" fill="#D80027"/>
<path d="M15.525 344L496.473 344C460.587 442.034 366.464 512 255.999 512C145.534 512 51.4103 442.034 15.525 344Z" fill="#6DA544"/>
</svg>
