<svg width="24" height="24" viewBox="0 0 24 24" fill="none" xmlns="http://www.w3.org/2000/svg">
<path fill-rule="evenodd" clip-rule="evenodd" d="M15.5365 6.49145C12.9736 3.92858 8.81836 3.92858 6.25549 6.49145C3.69262 9.05432 3.69262 13.2096 6.25549 15.7724C8.81836 18.3353 12.9736 18.3353 15.5365 15.7724C18.0993 13.2096 18.0993 9.05432 15.5365 6.49145ZM5.31268 5.54864C8.39625 2.46507 13.3957 2.46507 16.4793 5.54864C19.5629 8.63221 19.5629 13.6317 16.4793 16.7152C13.3957 19.7988 8.39625 19.7988 5.31268 16.7152C2.22911 13.6317 2.22911 8.63221 5.31268 5.54864ZM17.9745 17.7385C18.2348 17.4782 18.6569 17.4782 18.9173 17.7385L20.8047 19.626C21.0651 19.8864 21.0651 20.3085 20.8047 20.5688C20.5444 20.8292 20.1223 20.8292 19.8619 20.5688L17.9745 18.6813C17.7141 18.421 17.7141 17.9989 17.9745 17.7385Z" fill="#1F2261"/>
</svg>
