<svg width="512" height="512" viewBox="0 0 512 512" fill="none" xmlns="http://www.w3.org/2000/svg">
<path d="M482.19 376C501.219 340.208 512 299.363 512 256C512 212.637 501.219 171.792 482.19 136H29.8097C10.7813 171.792 0 212.637 0 256C0 299.363 10.7813 340.208 29.8097 376H482.19Z" fill="#EEEEEE"/>
<path d="M496.473 344C460.588 442.034 366.464 512 255.999 512C145.534 512 51.4106 442.034 15.5254 344H496.473Z" fill="#6DA544"/>
<path d="M496.475 168H15.5273C51.4126 69.9657 145.536 0 256.001 0C366.466 0 460.59 69.9657 496.475 168Z" fill="#333333"/>
<path d="M0 245.585C2.66508 178.982 30.7761 118.927 74.8766 74.877L256 256L74.8767 437.124C30.7761 393.073 2.66509 333.018 0 266.415V245.585Z" fill="#D80027"/>
<path d="M101.604 200.348L115.653 229.727L147.382 222.394L133.172 251.695L158.687 271.929L126.92 279.088L127.008 311.652L101.604 291.279L76.1995 311.652L76.2885 279.088L44.5215 271.929L70.0355 251.695L55.8275 222.394L87.5545 229.727L101.604 200.348Z" fill="#EEEEEE"/>
</svg>
