<svg width="512" height="512" viewBox="0 0 512 512" fill="none" xmlns="http://www.w3.org/2000/svg">
<circle cx="256" cy="256" r="256" fill="#EEEEEE"/>
<path d="M90.7483 153.676L153.702 90.7229L137.963 74.9844L75.0098 137.938L90.7483 153.676Z" fill="#333333"/>
<path d="M358.336 90.7717L381.943 114.379L397.682 98.6406L374.074 75.0332L358.336 90.7717Z" fill="#333333"/>
<path d="M397.698 177.335L334.745 114.382L350.483 98.6435L413.437 161.597L397.698 177.335Z" fill="#333333"/>
<path d="M373.983 311.1L350.375 334.707L366.114 350.446L389.721 326.838L373.983 311.1Z" fill="#333333"/>
<path d="M334.625 350.447L311.018 374.054L326.756 389.793L350.364 366.185L334.625 350.447Z" fill="#333333"/>
<path d="M397.594 381.92L421.202 358.312L436.94 374.051L413.333 397.658L397.594 381.92Z" fill="#333333"/>
<path d="M381.845 397.667L358.238 421.274L373.976 437.013L397.584 413.406L381.845 397.667Z" fill="#333333"/>
<path d="M373.983 358.315L397.591 334.708L413.329 350.446L389.722 374.054L373.983 358.315Z" fill="#333333"/>
<path d="M358.244 374.055L334.637 397.662L350.375 413.401L373.983 389.793L358.244 374.055Z" fill="#333333"/>
<path d="M311.125 137.995L334.733 161.603L350.471 145.865L326.863 122.257L311.125 137.995Z" fill="#333333"/>
<path d="M374.079 200.959L350.471 177.351L366.209 161.614L389.817 185.221L374.079 200.959Z" fill="#333333"/>
<path d="M421.311 153.74L397.703 130.133L413.442 114.394L437.049 138.002L421.311 153.74Z" fill="#333333"/>
<path d="M153.708 421.225L90.755 358.271L75.0165 374.01L137.97 436.963L153.708 421.225Z" fill="#333333"/>
<path d="M153.705 373.998L177.312 397.605L161.575 413.343L137.967 389.736L153.705 373.998Z" fill="#333333"/>
<path d="M137.963 358.266L114.356 334.659L98.6171 350.397L122.225 374.005L137.963 358.266Z" fill="#333333"/>
<path d="M137.966 311.045L200.919 373.998L185.181 389.737L122.227 326.783L137.966 311.045Z" fill="#333333"/>
<path d="M177.309 114.328L114.356 177.281L98.6174 161.542L161.571 98.5891L177.309 114.328Z" fill="#333333"/>
<path d="M137.986 200.903L200.939 137.949L185.201 122.212L122.248 185.165L137.986 200.903Z" fill="#333333"/>
<circle cx="96" cy="96" r="96" transform="matrix(-0.707107 -0.707107 -0.707107 0.707107 391.764 256)" fill="#D80027"/>
<path d="M188.101 188.133C150.627 225.607 150.601 286.365 188.061 323.825C225.521 361.285 286.391 361.371 323.865 323.898C342.626 305.136 342.682 274.691 323.916 255.925C305.136 237.145 274.74 237.25 255.979 256.011C237.214 274.775 206.812 274.817 188.026 256.031C169.278 237.276 169.337 206.897 188.101 188.133Z" fill="#0052B4"/>
</svg>
