<svg width="512" height="512" viewBox="0 0 512 512" fill="none" xmlns="http://www.w3.org/2000/svg">
<circle cx="256" cy="256" r="256" fill="#338AF3"/>
<path fill-rule="evenodd" clip-rule="evenodd" d="M167.677 258.783H111.305C111.305 278.762 128.706 294.957 148.683 294.957H147.479C147.479 314.936 163.674 331.131 183.653 331.131C183.653 351.11 199.848 367.305 219.827 367.305H292.175C312.154 367.305 328.349 351.11 328.349 331.131C348.328 331.131 364.523 314.936 364.523 294.957H363.319C383.294 294.957 400.697 278.762 400.697 258.783H344.324C327.434 290.253 294.216 311.653 256.001 311.653C217.785 311.653 184.567 290.253 167.677 258.783Z" fill="#FFDA44"/>
<path d="M332.516 211.477L301.251 226.184L317.9 256.464L283.95 249.969L279.648 284.265L256.001 259.04L232.353 284.265L228.052 249.969L194.102 256.462L210.75 226.183L179.486 211.477L210.751 196.771L194.102 166.492L228.051 172.986L232.354 138.69L256.001 163.915L279.649 138.69L283.95 172.986L317.901 166.492L301.252 196.772L332.516 211.477Z" fill="#FFDA44"/>
</svg>
