<svg width="512" height="512" viewBox="0 0 512 512" fill="none" xmlns="http://www.w3.org/2000/svg">
<path d="M477.752 384C499.534 346.346 512 302.629 512 256C512 209.371 499.534 165.654 477.752 128L34.2483 128C12.4665 165.654 0 209.371 0 256C0 302.629 12.4665 346.346 34.2482 384L477.752 384Z" fill="#EEEEEE"/>
<path d="M255.91 512C154.728 511.965 67.2675 453.23 25.7344 368L486.263 368C444.73 453.23 357.27 511.965 256.088 512C256.058 512 256.029 512 255.999 512C255.969 512 255.939 512 255.91 512Z" fill="#D80027"/>
<path d="M255.999 0C154.779 0 67.2798 58.7445 25.7344 144L486.263 144C444.718 58.7445 357.219 0 255.999 0Z" fill="#D80027"/>
<path d="M322.783 300.522L256 178.087L189.217 300.522H239.304V333.913H272.696V300.522H322.783Z" fill="#6DA544"/>
</svg>
