<svg width="512" height="512" viewBox="0 0 512 512" fill="none" xmlns="http://www.w3.org/2000/svg">
<circle cx="256" cy="256" r="256" fill="#D80027"/>
<path fill-rule="evenodd" clip-rule="evenodd" d="M285.247 215.746L256 125.732L226.753 215.746H132.107L208.677 271.377L179.43 361.39L256 305.759L332.57 361.39L303.323 271.377L379.893 215.746L285.247 215.746ZM240.701 215.755L256 168.67L271.299 215.755H240.701ZM275.602 229.023H236.399L224.284 266.307L255.999 289.349L287.716 266.305L275.602 229.023ZM222.45 229.014L212.995 258.114L172.943 229.014H222.45ZM219.966 279.57L204.668 326.654L244.72 297.554L219.966 279.57ZM267.28 297.554L292.034 279.569L307.332 326.654L267.28 297.554ZM299.005 258.114L339.057 229.014L289.55 229.014L299.005 258.114Z" fill="#6DA544"/>
<path d="M256 125.732L256.951 125.423L256 122.496L255.049 125.423L256 125.732ZM285.247 215.746L284.296 216.055L284.521 216.746H285.247V215.746ZM226.753 215.746V216.746H227.48L227.704 216.055L226.753 215.746ZM132.107 215.746V214.746H129.03L131.52 216.555L132.107 215.746ZM208.677 271.377L209.628 271.686L209.853 270.995L209.265 270.568L208.677 271.377ZM179.43 361.39L178.479 361.081L177.528 364.008L180.018 362.199L179.43 361.39ZM256 305.759L256.588 304.95L256 304.523L255.412 304.95L256 305.759ZM332.57 361.39L331.982 362.199L334.472 364.008L333.521 361.081L332.57 361.39ZM303.323 271.377L302.735 270.568L302.147 270.995L302.372 271.686L303.323 271.377ZM379.893 215.746L380.481 216.555L382.971 214.746H379.893V215.746ZM240.701 215.755L239.75 215.446L239.325 216.755H240.701V215.755ZM256 168.67L256.951 168.36L256 165.433L255.049 168.36L256 168.67ZM271.299 215.755V216.755H272.675L272.25 215.446L271.299 215.755ZM275.602 229.023L276.553 228.714L276.328 228.023H275.602V229.023ZM236.399 229.023V228.023H235.672L235.447 228.714L236.399 229.023ZM224.284 266.307L223.333 265.998L223.109 266.689L223.697 267.116L224.284 266.307ZM255.999 289.349L255.412 290.158L255.999 290.585L256.587 290.158L255.999 289.349ZM287.716 266.305L288.303 267.115L288.891 266.687L288.667 265.996L287.716 266.305ZM212.995 258.114L212.407 258.923L213.521 259.732L213.946 258.423L212.995 258.114ZM222.45 229.014L223.401 229.323L223.827 228.014H222.45V229.014ZM172.943 229.014V228.014H169.865L172.355 229.823L172.943 229.014ZM204.668 326.654L203.717 326.345L202.766 329.272L205.256 327.463L204.668 326.654ZM219.966 279.57L220.554 278.761L219.441 277.952L219.015 279.261L219.966 279.57ZM244.72 297.554L245.308 298.363L246.421 297.554L245.308 296.745L244.72 297.554ZM292.034 279.569L292.985 279.26L292.559 277.951L291.446 278.76L292.034 279.569ZM267.28 297.554L266.692 296.745L265.578 297.554L266.692 298.363L267.28 297.554ZM307.332 326.654L306.745 327.463L309.234 329.272L308.283 326.345L307.332 326.654ZM339.057 229.014L339.645 229.823L342.135 228.014H339.057V229.014ZM299.005 258.114L298.054 258.423L298.479 259.732L299.593 258.923L299.005 258.114ZM289.55 229.014V228.014H288.174L288.599 229.323L289.55 229.014ZM255.049 126.041L284.296 216.055L286.198 215.437L256.951 125.423L255.049 126.041ZM227.704 216.055L256.951 126.041L255.049 125.423L225.802 215.437L227.704 216.055ZM132.107 216.746H226.753V214.746H132.107V216.746ZM209.265 270.568L132.695 214.937L131.52 216.555L208.09 272.186L209.265 270.568ZM180.381 361.699L209.628 271.686L207.726 271.068L178.479 361.081L180.381 361.699ZM255.412 304.95L178.842 360.581L180.018 362.199L256.588 306.568L255.412 304.95ZM333.158 360.581L256.588 304.95L255.412 306.568L331.982 362.199L333.158 360.581ZM302.372 271.686L331.619 361.699L333.521 361.081L304.274 271.068L302.372 271.686ZM379.305 214.937L302.735 270.568L303.911 272.186L380.481 216.555L379.305 214.937ZM285.247 216.746L379.893 216.746V214.746L285.247 214.746V216.746ZM241.652 216.064L256.951 168.979L255.049 168.36L239.75 215.446L241.652 216.064ZM255.049 168.979L270.348 216.064L272.25 215.446L256.951 168.36L255.049 168.979ZM240.701 216.755H271.299V214.755H240.701V216.755ZM275.602 228.023H236.399V230.023H275.602V228.023ZM225.235 266.616L237.35 229.332L235.447 228.714L223.333 265.998L225.235 266.616ZM256.587 288.54L224.872 265.498L223.697 267.116L255.412 290.158L256.587 288.54ZM287.128 265.496L255.412 288.54L256.587 290.158L288.303 267.115L287.128 265.496ZM274.651 229.332L286.765 266.615L288.667 265.996L276.553 228.714L274.651 229.332ZM213.946 258.423L223.401 229.323L221.499 228.705L212.044 257.805L213.946 258.423ZM172.355 229.823L212.407 258.923L213.583 257.305L173.531 228.205L172.355 229.823ZM222.45 228.014H172.943V230.014H222.45V228.014ZM205.619 326.963L220.918 279.879L219.015 279.261L203.717 326.345L205.619 326.963ZM244.132 296.745L204.08 325.845L205.256 327.463L245.308 298.363L244.132 296.745ZM219.379 280.379L244.132 298.363L245.308 296.745L220.554 278.761L219.379 280.379ZM291.446 278.76L266.692 296.745L267.867 298.363L292.621 280.378L291.446 278.76ZM308.283 326.345L292.985 279.26L291.083 279.878L306.381 326.963L308.283 326.345ZM266.692 298.363L306.745 327.463L307.92 325.845L267.867 296.745L266.692 298.363ZM338.47 228.205L298.417 257.305L299.593 258.923L339.645 229.823L338.47 228.205ZM289.55 230.014L339.057 230.014V228.014L289.55 228.014V230.014ZM299.956 257.805L290.501 228.705L288.599 229.323L298.054 258.423L299.956 257.805Z" fill="#6DA544"/>
</svg>
