<svg width="512" height="512" viewBox="0 0 512 512" fill="none" xmlns="http://www.w3.org/2000/svg">
<path d="M503.202 322.783C508.939 301.492 512 279.104 512 256L503.202 189.218C496.784 165.404 487.018 142.965 474.438 122.435L415.379 55.652C371.675 20.8387 316.323 0.0256442 256.111 0H255.889C195.677 0.0256336 140.325 20.8387 96.6209 55.652L37.5621 122.435C24.9824 142.965 15.2155 165.404 8.79798 189.218L0 256L2.41187e-05 256.112C0.00992806 279.176 3.0698 301.527 8.7982 322.783L37.5622 389.565C53.2303 415.135 73.262 437.741 96.621 456.348L256 512L415.379 456.348C438.738 437.741 458.77 415.135 474.438 389.565L503.202 322.783Z" fill="#EEEEEE"/>
<path d="M503.202 189.218C508.939 210.508 512 232.897 512 256H0C0 232.897 3.06051 210.508 8.79822 189.218H503.202Z" fill="#D80027"/>
<path d="M415.379 55.6523C438.738 74.2593 458.77 96.8658 474.438 122.435H37.5622C53.2303 96.8658 73.262 74.2593 96.621 55.6523H415.379Z" fill="#D80027"/>
<path d="M474.438 389.565C487.018 369.036 496.784 346.596 503.202 322.782H8.79796C15.2155 346.596 24.9823 369.036 37.5621 389.565H474.438Z" fill="#D80027"/>
<path d="M415.379 456.348H96.6208C140.299 491.141 195.611 511.95 255.781 512H256.219C316.389 511.95 371.701 491.141 415.379 456.348Z" fill="#D80027"/>
<path d="M0 245.585C5.46421 109.029 117.896 0 255.792 0C255.861 0 255.931 2.75698e-05 256 8.2699e-05V256H0V245.585Z" fill="#0052B4"/>
<path d="M100.078 144.002C100.078 178.963 128.42 207.306 163.382 207.306C174.284 207.306 184.54 204.549 193.495 199.699C179.447 213.436 160.235 221.916 139.034 221.916C96.0051 221.916 61.1211 187.033 61.1211 144.003C61.1211 100.973 96.0051 66.0898 139.034 66.0898C160.235 66.0898 179.447 74.5698 193.495 88.3068C184.54 83.4548 174.283 80.6978 163.382 80.6978C128.421 80.6978 100.078 109.041 100.078 144.002Z" fill="#FFDA44"/>
<path d="M192.459 122.982L181.22 99.4805L169.98 122.982L144.597 117.118L155.964 140.557L135.552 156.744L160.966 162.473L160.896 188.524L181.22 172.226L201.543 188.524L201.472 162.473L226.886 156.744L206.474 140.557L217.84 117.118L192.459 122.982Z" fill="#FFDA44"/>
</svg>
