<svg width="512" height="512" viewBox="0 0 512 512" fill="none" xmlns="http://www.w3.org/2000/svg">
<path d="M482.19 376C501.219 340.208 512 299.363 512 256C512 212.637 501.219 171.792 482.19 136H29.8097C10.7813 171.792 0 212.637 0 256C0 299.363 10.7813 340.208 29.8097 376H482.19Z" fill="#D80027"/>
<path d="M496.473 344C460.588 442.034 366.464 512 255.999 512C145.534 512 51.4106 442.034 15.5254 344H496.473Z" fill="#6DA544"/>
<path d="M496.475 168H15.5273C51.4126 69.9657 145.536 0 256.001 0C366.466 0 460.59 69.9657 496.475 168Z" fill="#EEEEEE"/>
<path d="M168 15.526L168 496.474C69.9657 460.588 -5.68287e-06 366.465 -1.05114e-05 256C-1.534e-05 145.535 69.9657 51.4112 168 15.526Z" fill="#D80027"/>
<path d="M129.072 162.902L112 133.333L94.9282 162.902L81.0718 154.902L98.1435 125.333H64V109.333H98.1436L81.0718 79.7637L94.9282 71.7637L112 101.333L129.072 71.7637L142.928 79.7637L125.856 109.333H160V125.333H125.856L142.928 154.902L129.072 162.902Z" fill="#EEEEEE"/>
</svg>
