<svg width="512" height="512" viewBox="0 0 512 512" fill="none" xmlns="http://www.w3.org/2000/svg">
<path d="M256 512C397.216 512 511.727 397.658 512 256.505V256L256 224L0 256C0 397.385 114.615 512 256 512Z" fill="#D80027"/>
<path d="M512 255.495V256H0C0 114.615 114.615 0 256 0C397.216 0 511.727 114.342 512 255.495Z" fill="#0052B4"/>
<path d="M0 245.585C2.66508 178.982 30.7761 118.927 74.8766 74.877L256 256L74.8767 437.124C30.7761 393.073 2.66509 333.018 0 266.415V245.585Z" fill="#EEEEEE"/>
<path d="M70.9544 103.426L82.2788 116.685L98.3885 110.012L89.2777 124.88L100.602 138.139L83.6469 134.068L74.5361 148.936L73.168 131.553L56.2127 127.482L72.3225 120.809L70.9544 103.426Z" fill="#FFC635"/>
<path d="M70.9558 408.575L72.3239 391.192L56.2142 384.519L73.1694 380.449L74.5375 363.065L83.6483 377.933L100.604 373.862L89.2791 387.122L98.3899 401.989L82.2802 395.316L70.9558 408.575Z" fill="#FFC635"/>
<path d="M233.6 256L217.016 261.388L217.016 278.825L206.767 264.719L190.183 270.107L200.432 256L190.183 241.893L206.767 247.281L217.016 233.175L217.016 250.612L233.6 256Z" fill="#FFC635"/>
<path d="M106.799 184.808L110.765 188.774L104.851 218.505C109.8 219.484 114.4 221.431 118.447 224.14L135.29 198.932H140.899L120.451 225.58C121.104 226.081 121.74 226.604 122.358 227.146L147.102 198.932H154.061V205.891L125.847 230.635C126.389 231.253 126.912 231.889 127.413 232.541L154.061 212.094V217.703L128.853 234.546C131.562 238.593 133.509 243.194 134.487 248.142L164.219 242.228L168.185 246.194L134.886 250.578C134.992 251.389 135.072 252.208 135.125 253.034L172.571 250.58L177.492 255.501L172.572 260.422L135.125 257.968C135.072 258.794 134.992 259.613 134.886 260.424L168.186 264.808L164.22 268.774L134.487 262.86C133.508 267.808 131.561 272.408 128.852 276.455L154.061 293.299V298.908L127.413 278.46C126.911 279.112 126.388 279.748 125.846 280.366L154.061 305.11V312.069H147.101L122.358 283.855C121.74 284.397 121.104 284.92 120.451 285.421L140.899 312.069H135.29L118.446 286.86C114.399 289.57 109.799 291.516 104.851 292.495L110.765 322.228L106.799 326.194L102.415 292.894C101.604 293 100.785 293.08 99.9588 293.133L102.413 330.58L97.4923 335.501L92.5712 330.58L95.0257 293.133C94.1993 293.08 93.3803 293 92.5693 292.894L88.1852 326.194L84.2192 322.228L90.1336 292.495C85.1852 291.516 80.5849 289.569 76.5382 286.86L59.694 312.069H54.0853L74.5333 285.421C73.8805 284.919 73.2445 284.397 72.6265 283.854L47.8826 312.069H40.9238V305.11L69.1383 280.366C68.5959 279.748 68.0733 279.112 67.5716 278.459L40.9238 298.907V293.298L66.1324 276.454C63.4232 272.408 61.4764 267.808 60.4976 262.86L30.7649 268.774L26.7989 264.808L60.0984 260.424C59.9926 259.613 59.9127 258.794 59.8593 257.967L22.413 260.422L17.4922 255.501L22.4133 250.58L59.8592 253.034C59.9125 252.208 59.9925 251.389 60.0982 250.578L26.7993 246.194L30.7652 242.228L60.4973 248.142C61.476 243.194 63.4227 238.593 66.132 234.547L40.9238 217.703V212.094L67.5712 232.542C68.0729 231.889 68.5954 231.253 69.1379 230.635L40.9238 205.892V198.932L47.8827 198.932L72.6261 227.146C73.2441 226.604 73.8801 226.081 74.5329 225.58L54.0854 198.932H59.6941L76.5378 224.14C80.5846 221.431 85.185 219.484 90.1334 218.505L84.2195 188.774L88.1854 184.808L92.5692 218.106C93.3802 218 94.1993 217.921 95.0256 217.867L92.5714 180.422L97.4923 175.501L102.413 180.422L99.9589 217.867C100.785 217.921 101.604 218 102.415 218.106L106.799 184.808Z" fill="#FFC635"/>
</svg>
