<svg width="512" height="512" viewBox="0 0 512 512" fill="none" xmlns="http://www.w3.org/2000/svg">
<circle cx="256" cy="256" r="256" fill="#496E2D"/>
<path fill-rule="evenodd" clip-rule="evenodd" d="M128 34.248V477.752C51.4814 433.488 0 350.756 0 256C0 161.244 51.4814 78.5117 128 34.248Z" fill="#EEEEEE"/>
<path d="M373.802 298.337C341.415 321.738 296.189 314.454 272.789 282.068C249.387 249.68 256.672 204.455 289.059 181.055C299.157 173.759 310.503 169.446 322.046 167.947C299.839 164.626 276.364 169.63 256.727 183.819C216.867 212.621 207.9 268.282 236.701 308.144C265.502 348.003 321.164 356.971 361.026 328.167C380.665 313.978 392.786 293.265 396.604 271.136C391.558 281.622 383.901 291.04 373.802 298.337Z" fill="#EEEEEE"/>
<path d="M372.414 166.959L390.658 186.62L414.994 175.348L401.931 198.772L420.174 218.435L393.858 213.25L380.796 236.676L377.595 210.046L351.279 204.861L375.616 193.589L372.414 166.959Z" fill="#EEEEEE"/>
</svg>
