<svg width="512" height="512" viewBox="0 0 512 512" fill="none" xmlns="http://www.w3.org/2000/svg">
<path d="M29.8097 136C10.7814 171.792 1.42816e-05 212.637 1.04907e-05 256C6.69983e-06 299.363 10.7813 340.208 29.8097 376L482.19 376C501.219 340.208 512 299.363 512 256C512 212.637 501.219 171.792 482.19 136L29.8097 136Z" fill="#0052B4"/>
<path d="M15.527 168C51.4122 69.9657 145.536 -3.068e-05 256.001 -2.10229e-05C366.466 -1.13657e-05 460.589 69.9657 496.475 168L15.527 168Z" fill="#D80027"/>
<path d="M15.525 344L496.473 344C460.587 442.034 366.464 512 255.999 512C145.534 512 51.4103 442.034 15.525 344Z" fill="#EEEEEE"/>
<path d="M66.1973 144.696V272.402C66.1973 345.046 161.098 367.305 161.098 367.305C161.098 367.305 255.998 345.046 255.998 272.402V144.696H66.1973Z" fill="#D80027"/>
<path d="M105.445 166.957H216.75V122.435L194.489 133.565L161.098 100.174L127.706 133.565L105.445 122.435V166.957Z" fill="#FFC635"/>
<path d="M233.739 290.183L161.391 217.835L89.043 290.183L112.654 313.794L161.391 265.057L210.128 313.794L233.739 290.183Z" fill="#FFC635"/>
<path d="M233.739 222.61H199.983C201.881 219.334 202.985 215.54 202.985 211.482C202.985 199.186 193.018 189.221 180.724 189.221C172.229 189.221 164.852 193.979 161.099 200.974C157.346 193.98 149.969 189.221 141.474 189.221C129.18 189.221 119.213 199.186 119.213 211.482C119.213 215.54 120.317 219.335 122.215 222.61H89.043C89.043 234.905 99.752 244.871 112.045 244.871H111.304C111.304 257.166 121.27 267.132 133.565 267.132C133.565 278.018 141.383 287.062 151.708 288.998L134.168 328.6C142.574 332.017 151.76 333.915 161.392 333.915C171.024 333.915 180.21 332.017 188.616 328.6L171.076 288.998C181.401 287.064 189.219 278.019 189.219 267.132C201.514 267.132 211.48 257.166 211.48 244.871H210.739C223.031 244.871 233.739 234.904 233.739 222.61Z" fill="#EEEEEE"/>
</svg>
