<svg width="512" height="512" viewBox="0 0 512 512" fill="none" xmlns="http://www.w3.org/2000/svg">
<path d="M256 512C397.216 512 511.727 397.658 512 256.505V256L256 224L0 256C0 397.385 114.615 512 256 512Z" fill="#EEEEEE"/>
<path d="M512 255.495V256H0C0 114.615 114.615 0 256 0C397.216 0 511.727 114.342 512 255.495Z" fill="#D80027"/>
<path d="M154.863 127.999C154.863 90.7009 181.076 59.5429 216.08 51.8979C210.7 50.7239 205.119 50.0869 199.384 50.0869C156.353 50.0869 121.471 84.9689 121.471 128C121.471 171.031 156.353 205.913 199.384 205.913C205.117 205.913 210.699 205.276 216.08 204.101C181.076 196.456 154.863 165.298 154.863 127.999Z" fill="#EEEEEE"/>
<path d="M255.037 55.6523L260.563 72.6573H278.444L263.977 83.1683L269.503 100.173L255.037 89.6643L240.571 100.173L246.097 83.1683L231.631 72.6573H249.511L255.037 55.6523Z" fill="#EEEEEE"/>
<path d="M211.662 89.043L217.187 106.049H235.068L220.602 116.559L226.128 133.564L211.662 123.055L197.194 133.564L202.721 116.559L188.254 106.049H206.135L211.662 89.043Z" fill="#EEEEEE"/>
<path d="M298.412 89.043L303.939 106.049H321.819L307.352 116.559L312.879 133.564L298.412 123.055L283.946 133.564L289.472 116.559L275.006 106.049H292.886L298.412 89.043Z" fill="#EEEEEE"/>
<path d="M281.717 139.13L287.243 156.136H305.123L290.657 166.646L296.183 183.651L281.717 173.142L267.251 183.651L272.777 166.646L258.311 156.136H276.19L281.717 139.13Z" fill="#EEEEEE"/>
<path d="M228.356 139.13L233.881 156.136H251.763L237.296 166.646L242.823 183.651L228.356 173.142L213.889 183.651L219.415 166.646L204.949 156.136H222.83L228.356 139.13Z" fill="#EEEEEE"/>
</svg>
