<svg width="512" height="512" viewBox="0 0 512 512" fill="none" xmlns="http://www.w3.org/2000/svg">
<circle cx="256" cy="256" r="256" fill="#EEEEEE"/>
<path fill-rule="evenodd" clip-rule="evenodd" d="M65.1861 85.3333C112.061 32.9601 180.182 0 256.001 0C331.819 0 399.94 32.9601 446.815 85.3333H65.1861ZM256.58 511.999C332.166 511.832 400.06 478.906 446.816 426.666H65.1855C111.942 478.906 179.835 511.832 255.422 511.999H256.58Z" fill="#D80027"/>
<path fill-rule="evenodd" clip-rule="evenodd" d="M497.433 341.335C506.867 314.644 512 285.921 512 256C512 226.08 506.867 197.358 497.434 170.668H14.5664C5.13299 197.358 0 226.08 0 256C0 285.921 5.13333 314.644 14.5673 341.335H497.433Z" fill="#002266"/>
</svg>
