<svg width="512" height="512" viewBox="0 0 512 512" fill="none" xmlns="http://www.w3.org/2000/svg">
<circle cx="256" cy="256" r="256" fill="#496E2D"/>
<path fill-rule="evenodd" clip-rule="evenodd" d="M64 86.6666C97.3506 48.8806 141.682 21.0155 192 8.06445V503.934C141.682 490.983 97.3506 463.118 64 425.332V86.6666Z" fill="#D80027"/>
<path fill-rule="evenodd" clip-rule="evenodd" d="M309.618 105.314L320.563 91.1719L320.022 109.047L336.851 115.084L319.685 120.091L319.145 137.963L309.077 123.187L291.912 128.193L302.855 114.053L292.789 99.2749L309.618 105.314ZM358.498 100.795C388.865 119.811 403.015 157.992 390.42 193.098C377.825 228.204 342.629 248.681 307.099 244.054C311.766 246.977 316.805 249.462 322.202 251.398C362.705 265.93 407.317 244.878 421.849 204.373C436.381 163.871 415.327 119.259 374.824 104.727C369.428 102.792 363.96 101.506 358.498 100.795ZM350.115 137.251L339.17 151.392L322.34 145.353L332.407 160.131L321.463 174.271L338.628 169.263L348.696 184.042L349.238 166.169L366.403 161.161L349.573 155.123L350.115 137.251ZM257.514 122.094L268.459 107.954L267.918 125.827L284.747 131.866L267.582 136.873L267.04 154.745L256.972 139.968L239.808 144.975L250.752 130.834L240.685 116.057L257.514 122.094ZM267.259 160.736L256.315 174.877L239.485 168.839L249.553 183.617L238.607 197.757L255.774 192.751L265.841 207.527L266.382 189.655L283.548 184.648L266.717 178.609L267.259 160.736ZM306.54 192.897L317.485 178.757L316.943 196.63L333.774 202.668L316.608 207.674L316.067 225.548L306 210.77L288.833 215.776L299.779 201.637L289.711 186.859L306.54 192.897Z" fill="#EEEEEE"/>
<path d="M112.187 117.222L89.8262 100.564V77.0076L112.187 60.3496H143.812L166.173 77.0076V100.564L143.812 117.222H112.187Z" fill="#EEEEEE"/>
<path d="M128 60.3496H112.187L89.8262 77.0076V88.5246H128V60.3496Z" fill="#FF9811"/>
<path d="M128 117.221H143.812L166.173 100.563V88.5469H128V117.221Z" fill="#FF9811"/>
<path d="M166.955 162.784H157.215V153.045H140.1L127.998 140.943L115.897 153.045H98.782V162.784H89.043V182.262H98.782V192.001H115.896L127.999 204.104L140.1 192.001H157.215V182.262H166.955V162.784Z" fill="#496E2D"/>
<path d="M127.997 183.656C134.144 183.656 139.127 178.673 139.127 172.526C139.127 166.38 134.144 161.396 127.997 161.396C121.85 161.396 116.867 166.38 116.867 172.526C116.867 178.673 121.85 183.656 127.997 183.656Z" fill="#D80027"/>
<path d="M112.187 284.435L89.8262 267.777V244.22L112.187 227.562H143.812L166.173 244.22V267.777L143.812 284.435H112.187Z" fill="#496E2D"/>
<path d="M116.867 244.867H139.128V267.128H116.867V244.867Z" fill="#D80027"/>
<path d="M166.955 329.737H157.215V319.999H140.1L127.998 307.896L115.897 319.999H98.782V329.737H89.043V349.215H98.782V358.954H115.896L127.999 371.057L140.1 358.954H157.215V349.215H166.955V329.737Z" fill="#496E2D"/>
<path d="M127.997 350.61C134.144 350.61 139.127 345.627 139.127 339.48C139.127 333.333 134.144 328.35 127.997 328.35C121.85 328.35 116.867 333.333 116.867 339.48C116.867 345.627 121.85 350.61 127.997 350.61Z" fill="#D80027"/>
<path d="M112.187 451.392L89.8262 434.734V411.178L112.187 394.52H143.812L166.173 411.178V434.734L143.812 451.392H112.187Z" fill="#EEEEEE"/>
<path d="M128 394.52H112.187L89.8262 411.178V422.695H128V394.52Z" fill="#FF9811"/>
<path d="M128 451.391H143.812L166.173 434.733V422.717H128V451.391Z" fill="#FF9811"/>
</svg>
