<svg width="512" height="512" viewBox="0 0 512 512" fill="none" xmlns="http://www.w3.org/2000/svg">
<circle cx="256" cy="256" r="256" fill="#D80027"/>
<path fill-rule="evenodd" clip-rule="evenodd" d="M140.521 256.001C140.521 295.957 172.913 328.349 212.869 328.349C225.327 328.349 237.049 325.198 247.283 319.651C231.229 335.352 209.273 345.043 185.043 345.043C135.866 345.043 96 305.177 96 256C96 206.823 135.865 166.957 185.043 166.957C209.271 166.957 231.228 176.647 247.283 192.349C237.049 186.804 225.327 183.653 212.869 183.653C172.913 183.653 140.521 216.045 140.521 256.001ZM291.197 238.132L270.192 209.188L270.17 244.951L236.152 255.981L270.158 267.053L270.136 302.814L291.173 273.895L325.178 284.966L304.176 256.022L325.214 227.102L291.197 238.132Z" fill="#EEEEEE"/>
</svg>
