<svg width="512" height="512" viewBox="0 0 512 512" fill="none" xmlns="http://www.w3.org/2000/svg">
<g clip-path="url(#clip0_1191_4857)">
<path d="M256 512C397.216 512 511.727 397.658 512 256.505V256L256 224L0 256C0 397.385 114.615 512 256 512Z" fill="#0052B4"/>
<path d="M512 255.495V256H0C0 114.615 114.615 0 256 0C397.216 0 511.727 114.342 512 255.495Z" fill="#D80027"/>
<path fill-rule="evenodd" clip-rule="evenodd" d="M511.999 255.33V256.668C511.971 267.755 511.238 278.677 509.842 289.391L267.865 289.39L99.0195 458.235C38.7664 411.397 0 338.225 0 255.999C0 173.773 38.7664 100.601 99.0193 53.7637L267.862 222.607L509.842 222.608C511.238 233.321 511.971 244.243 511.999 255.33Z" fill="#6DA544"/>
<path fill-rule="evenodd" clip-rule="evenodd" d="M503.573 321.392L281.12 321.392L125.954 476.556C116.575 471.014 107.581 464.891 99.0197 458.236L269.255 288.001L510.02 288.001C508.601 299.38 506.435 310.528 503.573 321.392ZM125.954 35.4453L281.117 190.608L503.573 190.609C506.435 201.474 508.601 212.622 510.02 224.001H269.255L99.0195 53.7655C107.581 47.1106 116.575 40.9874 125.954 35.4453Z" fill="#EEEEEE"/>
<path fill-rule="evenodd" clip-rule="evenodd" d="M53.9642 413.237C20.1459 369.845 0 315.275 0 256C0 196.725 20.1455 142.155 53.9633 98.7637L211.2 256.001L53.9642 413.237Z" fill="#333333"/>
<path fill-rule="evenodd" clip-rule="evenodd" d="M35.6133 125.668C41.166 116.299 47.2992 107.314 53.9633 98.7637L211.2 256.001L53.9642 413.237C47.3001 404.686 41.1668 395.701 35.6141 386.332L165.945 256.001L35.6133 125.668Z" fill="#FFDA44"/>
</g>
<defs>
<clipPath id="clip0_1191_4857">
<rect width="512" height="512" fill="white"/>
</clipPath>
</defs>
</svg>
